# xmcd CD database file
#
# Track frame offsets:
#	150
#	23850
#	42439
#	57070
#	66564
#	83805
#	98954
#	118015
#	131839
#	151688
#	168418
#	182603
#	196441
#	208149
#	222010
#	237940
#	257471
#	272857
#	287283
#	298004
#
# Disc length: 4173 seconds
#
# Revision: 1
# Processed by: cddbd v1.4PL0 Copyright (c) Steve Scherf et al.
# Submitted via: Feurio! 1.65 - http://www.feurio.com
#
DISCID=28104b14
DTITLE=Various Artist - Country CD 3
DYEAR=1900
DGENRE=
TTITLE0=Garth Brooks - Boot Scootin' Boogie
TTITLE1=Shania Twain - From This Moment (Tempo Mix)
TTITLE2=Line Dansen - Slow Country Waltz
TTITLE3=Ricky King - Ghostriders In The Sky
TTITLE4=Scooter Lee - Shadows In The Night
TTITLE5=The Mavericks - Tomorrow Never Comes
TTITLE6=Scooter Lee - Honky Tonk Twist
TTITLE7=Tanya Tucker - Trail Of Tears
TTITLE8=The Mavericks - All you have to do is bring me
TTITLE9=Scooter Lee - Locomotion
TTITLE10=The Mavericks - She Does
TTITLE11=The Mavericks - Snakeskin Cadillac
TTITLE12=The Woolpackers - Hillbilly Rock Hillbilly Roll
TTITLE13=Tim McGraw - Watermellon Crawl
TTITLE14=Scooter Lee - Rose Garden
TTITLE15=Travis Tritt - Honky Tonk Women
TTITLE16=Alabama - If Your Gonna Play In Texas
TTITLE17=Scooter Lee - Twistin The Night Away
TTITLE18=Bluegrass - Dueling Banjo
TTITLE19=Hermes House Band - Country Roads
EXTD=
EXTT0=
EXTT1=
EXTT2=
EXTT3=
EXTT4=
EXTT5=
EXTT6=Encoded with EC's MPEG Suite
EXTT7=
EXTT8=
EXTT9=
EXTT10=
EXTT11=
EXTT12=
EXTT13=
EXTT14=
EXTT15=
EXTT16=
EXTT17=
EXTT18=
EXTT19=
PLAYORDER=
